<mxfile host="Electron" agent="Mozilla/5.0 (Windows NT 10.0; Win64; x64) AppleWebKit/537.36 (KHTML, like Gecko) draw.io/26.1.1 Chrome/132.0.6834.210 Electron/34.3.3 Safari/537.36" version="26.1.1">
  <diagram name="Page-1" id="2YBvvXClWsGukQMizWep">
    <mxGraphModel dx="1434" dy="836" grid="1" gridSize="10" guides="1" tooltips="1" connect="1" arrows="1" fold="1" page="1" pageScale="1" pageWidth="850" pageHeight="1100" math="0" shadow="0">
      <root>
        <mxCell id="0" />
        <mxCell id="1" parent="0" />
        <mxCell id="aM9ryv3xv72pqoxQDRHE-5" value="Login Interface&lt;div&gt;(Desktop App)&lt;/div&gt;" style="shape=umlLifeline;perimeter=lifelinePerimeter;whiteSpace=wrap;html=1;container=0;dropTarget=0;collapsible=0;recursiveResize=0;outlineConnect=0;portConstraint=eastwest;newEdgeStyle={&quot;edgeStyle&quot;:&quot;elbowEdgeStyle&quot;,&quot;elbow&quot;:&quot;vertical&quot;,&quot;curved&quot;:0,&quot;rounded&quot;:0};" parent="1" vertex="1">
          <mxGeometry x="210" y="120" width="100" height="550" as="geometry" />
        </mxCell>
        <mxCell id="aM9ryv3xv72pqoxQDRHE-6" value="" style="html=1;points=[];perimeter=orthogonalPerimeter;outlineConnect=0;targetShapes=umlLifeline;portConstraint=eastwest;newEdgeStyle={&quot;edgeStyle&quot;:&quot;elbowEdgeStyle&quot;,&quot;elbow&quot;:&quot;vertical&quot;,&quot;curved&quot;:0,&quot;rounded&quot;:0};" parent="aM9ryv3xv72pqoxQDRHE-5" vertex="1">
          <mxGeometry x="45" y="80" width="10" height="370" as="geometry" />
        </mxCell>
        <mxCell id="yWkAhvQST8Fs1WPdhRmA-1" value="" style="shape=umlActor;verticalLabelPosition=bottom;verticalAlign=top;html=1;outlineConnect=0;" parent="1" vertex="1">
          <mxGeometry x="75" y="60" width="30" height="60" as="geometry" />
        </mxCell>
        <mxCell id="yWkAhvQST8Fs1WPdhRmA-3" value="Admin" style="shape=umlLifeline;perimeter=lifelinePerimeter;whiteSpace=wrap;html=1;container=0;dropTarget=0;collapsible=0;recursiveResize=0;outlineConnect=0;portConstraint=eastwest;newEdgeStyle={&quot;edgeStyle&quot;:&quot;elbowEdgeStyle&quot;,&quot;elbow&quot;:&quot;vertical&quot;,&quot;curved&quot;:0,&quot;rounded&quot;:0};" parent="1" vertex="1">
          <mxGeometry x="40" y="120" width="100" height="450" as="geometry" />
        </mxCell>
        <mxCell id="yWkAhvQST8Fs1WPdhRmA-4" value="" style="html=1;points=[];perimeter=orthogonalPerimeter;outlineConnect=0;targetShapes=umlLifeline;portConstraint=eastwest;newEdgeStyle={&quot;edgeStyle&quot;:&quot;elbowEdgeStyle&quot;,&quot;elbow&quot;:&quot;vertical&quot;,&quot;curved&quot;:0,&quot;rounded&quot;:0};" parent="yWkAhvQST8Fs1WPdhRmA-3" vertex="1">
          <mxGeometry x="45" y="80" width="10" height="380" as="geometry" />
        </mxCell>
        <mxCell id="yWkAhvQST8Fs1WPdhRmA-5" value="Authentification&lt;div&gt;System&lt;/div&gt;" style="shape=umlLifeline;perimeter=lifelinePerimeter;whiteSpace=wrap;html=1;container=0;dropTarget=0;collapsible=0;recursiveResize=0;outlineConnect=0;portConstraint=eastwest;newEdgeStyle={&quot;edgeStyle&quot;:&quot;elbowEdgeStyle&quot;,&quot;elbow&quot;:&quot;vertical&quot;,&quot;curved&quot;:0,&quot;rounded&quot;:0};" parent="1" vertex="1">
          <mxGeometry x="375" y="120" width="100" height="540" as="geometry" />
        </mxCell>
        <mxCell id="yWkAhvQST8Fs1WPdhRmA-6" value="" style="html=1;points=[];perimeter=orthogonalPerimeter;outlineConnect=0;targetShapes=umlLifeline;portConstraint=eastwest;newEdgeStyle={&quot;edgeStyle&quot;:&quot;elbowEdgeStyle&quot;,&quot;elbow&quot;:&quot;vertical&quot;,&quot;curved&quot;:0,&quot;rounded&quot;:0};" parent="yWkAhvQST8Fs1WPdhRmA-5" vertex="1">
          <mxGeometry x="45" y="80" width="10" height="370" as="geometry" />
        </mxCell>
        <mxCell id="yWkAhvQST8Fs1WPdhRmA-9" style="edgeStyle=elbowEdgeStyle;rounded=0;orthogonalLoop=1;jettySize=auto;html=1;elbow=vertical;curved=0;" parent="1" source="yWkAhvQST8Fs1WPdhRmA-4" edge="1">
          <mxGeometry relative="1" as="geometry">
            <mxPoint x="100" y="220" as="sourcePoint" />
            <mxPoint x="250" y="220" as="targetPoint" />
            <Array as="points">
              <mxPoint x="240" y="220" />
            </Array>
          </mxGeometry>
        </mxCell>
        <mxCell id="yWkAhvQST8Fs1WPdhRmA-10" value="Admin log in" style="text;html=1;align=center;verticalAlign=middle;resizable=0;points=[];autosize=1;strokeColor=none;fillColor=none;" parent="1" vertex="1">
          <mxGeometry x="125" y="188" width="90" height="30" as="geometry" />
        </mxCell>
        <mxCell id="yWkAhvQST8Fs1WPdhRmA-11" style="edgeStyle=elbowEdgeStyle;rounded=0;orthogonalLoop=1;jettySize=auto;html=1;elbow=vertical;curved=0;" parent="1" edge="1">
          <mxGeometry relative="1" as="geometry">
            <mxPoint x="265" y="218" as="sourcePoint" />
            <mxPoint x="420" y="218" as="targetPoint" />
          </mxGeometry>
        </mxCell>
        <mxCell id="nYSf58fdKPmcUPkHfscj-8" style="edgeStyle=orthogonalEdgeStyle;rounded=0;orthogonalLoop=1;jettySize=auto;html=1;" edge="1" parent="1" source="yWkAhvQST8Fs1WPdhRmA-12" target="nYSf58fdKPmcUPkHfscj-6">
          <mxGeometry relative="1" as="geometry">
            <Array as="points">
              <mxPoint x="500" y="220" />
              <mxPoint x="500" y="220" />
            </Array>
          </mxGeometry>
        </mxCell>
        <mxCell id="yWkAhvQST8Fs1WPdhRmA-12" value="login(username, password&lt;span style=&quot;background-color: transparent; color: light-dark(rgb(0, 0, 0), rgb(255, 255, 255));&quot;&gt;)&lt;/span&gt;&lt;div&gt;&lt;div&gt;&lt;br&gt;&lt;/div&gt;&lt;/div&gt;" style="text;html=1;align=center;verticalAlign=middle;resizable=0;points=[];autosize=1;strokeColor=none;fillColor=none;" parent="1" vertex="1">
          <mxGeometry x="255" y="190" width="170" height="40" as="geometry" />
        </mxCell>
        <mxCell id="nYSf58fdKPmcUPkHfscj-2" value="" style="endArrow=block;dashed=1;endFill=0;endSize=12;html=1;rounded=0;" edge="1" parent="1">
          <mxGeometry width="160" relative="1" as="geometry">
            <mxPoint x="420.25" y="250" as="sourcePoint" />
            <mxPoint x="259.75" y="250" as="targetPoint" />
          </mxGeometry>
        </mxCell>
        <mxCell id="nYSf58fdKPmcUPkHfscj-5" value="Authentification Success&lt;div&gt;&lt;br&gt;&lt;/div&gt;" style="edgeLabel;html=1;align=center;verticalAlign=middle;resizable=0;points=[];" vertex="1" connectable="0" parent="nYSf58fdKPmcUPkHfscj-2">
          <mxGeometry x="0.0249" y="-2" relative="1" as="geometry">
            <mxPoint as="offset" />
          </mxGeometry>
        </mxCell>
        <mxCell id="nYSf58fdKPmcUPkHfscj-6" value="Database" style="shape=umlLifeline;perimeter=lifelinePerimeter;whiteSpace=wrap;html=1;container=0;dropTarget=0;collapsible=0;recursiveResize=0;outlineConnect=0;portConstraint=eastwest;newEdgeStyle={&quot;edgeStyle&quot;:&quot;elbowEdgeStyle&quot;,&quot;elbow&quot;:&quot;vertical&quot;,&quot;curved&quot;:0,&quot;rounded&quot;:0};" vertex="1" parent="1">
          <mxGeometry x="530" y="120" width="100" height="540" as="geometry" />
        </mxCell>
        <mxCell id="nYSf58fdKPmcUPkHfscj-7" value="" style="html=1;points=[];perimeter=orthogonalPerimeter;outlineConnect=0;targetShapes=umlLifeline;portConstraint=eastwest;newEdgeStyle={&quot;edgeStyle&quot;:&quot;elbowEdgeStyle&quot;,&quot;elbow&quot;:&quot;vertical&quot;,&quot;curved&quot;:0,&quot;rounded&quot;:0};" vertex="1" parent="nYSf58fdKPmcUPkHfscj-6">
          <mxGeometry x="45" y="80" width="10" height="370" as="geometry" />
        </mxCell>
        <mxCell id="nYSf58fdKPmcUPkHfscj-9" value="Response" style="endArrow=open;endSize=12;dashed=1;html=1;rounded=0;" edge="1" parent="1">
          <mxGeometry width="160" relative="1" as="geometry">
            <mxPoint x="575" y="250" as="sourcePoint" />
            <mxPoint x="415" y="250" as="targetPoint" />
          </mxGeometry>
        </mxCell>
        <mxCell id="nYSf58fdKPmcUPkHfscj-10" style="edgeStyle=elbowEdgeStyle;rounded=0;orthogonalLoop=1;jettySize=auto;html=1;elbow=vertical;curved=0;" edge="1" parent="1" target="aM9ryv3xv72pqoxQDRHE-5">
          <mxGeometry relative="1" as="geometry">
            <mxPoint x="100" y="310" as="sourcePoint" />
            <mxPoint x="264.5" y="310" as="targetPoint" />
          </mxGeometry>
        </mxCell>
        <mxCell id="nYSf58fdKPmcUPkHfscj-11" value="Access User Management" style="edgeLabel;html=1;align=center;verticalAlign=middle;resizable=0;points=[];" vertex="1" connectable="0" parent="nYSf58fdKPmcUPkHfscj-10">
          <mxGeometry x="-0.1733" y="1" relative="1" as="geometry">
            <mxPoint as="offset" />
          </mxGeometry>
        </mxCell>
        <mxCell id="nYSf58fdKPmcUPkHfscj-12" style="edgeStyle=elbowEdgeStyle;rounded=0;orthogonalLoop=1;jettySize=auto;html=1;elbow=vertical;curved=0;" edge="1" parent="1" target="nYSf58fdKPmcUPkHfscj-6">
          <mxGeometry relative="1" as="geometry">
            <mxPoint x="262.5" y="310" as="sourcePoint" />
            <mxPoint x="417.5" y="310" as="targetPoint" />
          </mxGeometry>
        </mxCell>
        <mxCell id="nYSf58fdKPmcUPkHfscj-16" value="Display List of Users" style="edgeLabel;html=1;align=center;verticalAlign=middle;resizable=0;points=[];" vertex="1" connectable="0" parent="nYSf58fdKPmcUPkHfscj-12">
          <mxGeometry x="0.2019" y="3" relative="1" as="geometry">
            <mxPoint as="offset" />
          </mxGeometry>
        </mxCell>
        <mxCell id="nYSf58fdKPmcUPkHfscj-14" value="" style="endArrow=block;dashed=1;endFill=0;endSize=12;html=1;rounded=0;" edge="1" parent="1" source="nYSf58fdKPmcUPkHfscj-6" target="aM9ryv3xv72pqoxQDRHE-5">
          <mxGeometry width="160" relative="1" as="geometry">
            <mxPoint x="370" y="350" as="sourcePoint" />
            <mxPoint x="370" y="350" as="targetPoint" />
          </mxGeometry>
        </mxCell>
        <mxCell id="nYSf58fdKPmcUPkHfscj-15" value="Display List of users Recieved" style="edgeLabel;html=1;align=center;verticalAlign=middle;resizable=0;points=[];" vertex="1" connectable="0" parent="nYSf58fdKPmcUPkHfscj-14">
          <mxGeometry x="0.2531" y="-2" relative="1" as="geometry">
            <mxPoint as="offset" />
          </mxGeometry>
        </mxCell>
        <mxCell id="nYSf58fdKPmcUPkHfscj-17" style="edgeStyle=elbowEdgeStyle;rounded=0;orthogonalLoop=1;jettySize=auto;html=1;elbow=horizontal;curved=0;" edge="1" parent="1">
          <mxGeometry relative="1" as="geometry">
            <mxPoint x="95" y="370" as="sourcePoint" />
            <mxPoint x="255" y="370" as="targetPoint" />
          </mxGeometry>
        </mxCell>
        <mxCell id="nYSf58fdKPmcUPkHfscj-19" value="Select User" style="edgeLabel;html=1;align=center;verticalAlign=middle;resizable=0;points=[];" vertex="1" connectable="0" parent="nYSf58fdKPmcUPkHfscj-17">
          <mxGeometry x="-0.2125" y="3" relative="1" as="geometry">
            <mxPoint as="offset" />
          </mxGeometry>
        </mxCell>
        <mxCell id="nYSf58fdKPmcUPkHfscj-20" style="edgeStyle=elbowEdgeStyle;rounded=0;orthogonalLoop=1;jettySize=auto;html=1;elbow=vertical;curved=0;" edge="1" parent="1">
          <mxGeometry relative="1" as="geometry">
            <mxPoint x="268" y="400" as="sourcePoint" />
            <mxPoint x="582.5" y="400" as="targetPoint" />
          </mxGeometry>
        </mxCell>
        <mxCell id="nYSf58fdKPmcUPkHfscj-21" value="Get User Info" style="edgeLabel;html=1;align=center;verticalAlign=middle;resizable=0;points=[];" vertex="1" connectable="0" parent="nYSf58fdKPmcUPkHfscj-20">
          <mxGeometry x="-0.1097" y="2" relative="1" as="geometry">
            <mxPoint as="offset" />
          </mxGeometry>
        </mxCell>
        <mxCell id="nYSf58fdKPmcUPkHfscj-22" value="" style="endArrow=block;dashed=1;endFill=0;endSize=12;html=1;rounded=0;" edge="1" parent="1">
          <mxGeometry width="160" relative="1" as="geometry">
            <mxPoint x="570.5" y="430" as="sourcePoint" />
            <mxPoint x="255" y="430" as="targetPoint" />
          </mxGeometry>
        </mxCell>
        <mxCell id="nYSf58fdKPmcUPkHfscj-23" value="Retrieve User Ingo" style="edgeLabel;html=1;align=center;verticalAlign=middle;resizable=0;points=[];" vertex="1" connectable="0" parent="nYSf58fdKPmcUPkHfscj-22">
          <mxGeometry x="-0.1664" y="-2" relative="1" as="geometry">
            <mxPoint x="1" as="offset" />
          </mxGeometry>
        </mxCell>
        <mxCell id="nYSf58fdKPmcUPkHfscj-24" style="edgeStyle=elbowEdgeStyle;rounded=0;orthogonalLoop=1;jettySize=auto;html=1;elbow=vertical;curved=0;" edge="1" parent="1">
          <mxGeometry relative="1" as="geometry">
            <mxPoint x="95" y="450" as="sourcePoint" />
            <mxPoint x="255" y="450" as="targetPoint" />
          </mxGeometry>
        </mxCell>
        <mxCell id="nYSf58fdKPmcUPkHfscj-25" value="Modify User" style="edgeLabel;html=1;align=center;verticalAlign=middle;resizable=0;points=[];" vertex="1" connectable="0" parent="nYSf58fdKPmcUPkHfscj-24">
          <mxGeometry x="0.1875" y="-2" relative="1" as="geometry">
            <mxPoint as="offset" />
          </mxGeometry>
        </mxCell>
        <mxCell id="nYSf58fdKPmcUPkHfscj-26" style="edgeStyle=elbowEdgeStyle;rounded=0;orthogonalLoop=1;jettySize=auto;html=1;elbow=vertical;curved=0;" edge="1" parent="1">
          <mxGeometry relative="1" as="geometry">
            <mxPoint x="95" y="490" as="sourcePoint" />
            <mxPoint x="255" y="490" as="targetPoint" />
          </mxGeometry>
        </mxCell>
        <mxCell id="nYSf58fdKPmcUPkHfscj-27" value="Submit Changes" style="edgeLabel;html=1;align=center;verticalAlign=middle;resizable=0;points=[];" vertex="1" connectable="0" parent="nYSf58fdKPmcUPkHfscj-26">
          <mxGeometry x="-0.125" y="2" relative="1" as="geometry">
            <mxPoint as="offset" />
          </mxGeometry>
        </mxCell>
        <mxCell id="nYSf58fdKPmcUPkHfscj-28" style="edgeStyle=elbowEdgeStyle;rounded=0;orthogonalLoop=1;jettySize=auto;html=1;elbow=vertical;curved=0;" edge="1" parent="1" source="aM9ryv3xv72pqoxQDRHE-6" target="nYSf58fdKPmcUPkHfscj-7">
          <mxGeometry relative="1" as="geometry">
            <Array as="points">
              <mxPoint x="410" y="490" />
            </Array>
          </mxGeometry>
        </mxCell>
        <mxCell id="nYSf58fdKPmcUPkHfscj-29" value="Send User Data" style="edgeLabel;html=1;align=center;verticalAlign=middle;resizable=0;points=[];" vertex="1" connectable="0" parent="nYSf58fdKPmcUPkHfscj-28">
          <mxGeometry x="0.0452" y="1" relative="1" as="geometry">
            <mxPoint as="offset" />
          </mxGeometry>
        </mxCell>
        <mxCell id="nYSf58fdKPmcUPkHfscj-30" value="" style="endArrow=block;dashed=1;endFill=0;endSize=12;html=1;rounded=0;" edge="1" parent="1" target="aM9ryv3xv72pqoxQDRHE-5">
          <mxGeometry width="160" relative="1" as="geometry">
            <mxPoint x="579.5" y="540" as="sourcePoint" />
            <mxPoint x="95" y="540" as="targetPoint" />
          </mxGeometry>
        </mxCell>
        <mxCell id="nYSf58fdKPmcUPkHfscj-31" value="Success Message" style="edgeLabel;html=1;align=center;verticalAlign=middle;resizable=0;points=[];" vertex="1" connectable="0" parent="nYSf58fdKPmcUPkHfscj-30">
          <mxGeometry x="0.0969" y="2" relative="1" as="geometry">
            <mxPoint x="1" as="offset" />
          </mxGeometry>
        </mxCell>
      </root>
    </mxGraphModel>
  </diagram>
</mxfile>
